<svg width="24" height="23" viewBox="0 0 24 23" fill="none" xmlns="http://www.w3.org/2000/svg">
<path d="M20 0H4.00002C2.93952 0.00119105 1.9228 0.423001 1.17291 1.17289C0.423023 1.92278 0.00121355 2.9395 2.24954e-05 4V21.3159C-0.00145036 21.5671 0.0694299 21.8135 0.204197 22.0255C0.338965 22.2376 0.531922 22.4064 0.760022 22.5117C0.936242 22.5948 1.12861 22.638 1.32342 22.6382C1.63154 22.6378 1.92965 22.5287 2.16522 22.3301L7.36182 18H20C21.0605 17.9988 22.0772 17.577 22.8271 16.8271C23.577 16.0772 23.9988 15.0605 24 14V4C23.9988 2.9395 23.577 1.92278 22.8271 1.17289C22.0772 0.423001 21.0605 0.00119105 20 0ZM22 14C21.9995 14.5303 21.7886 15.0387 21.4137 15.4136C21.0387 15.7886 20.5303 15.9995 20 16H7.00002C6.76612 16 6.53964 16.0821 6.36002 16.2319L2.00002 19.8647V4C2.00055 3.46973 2.21144 2.96133 2.58639 2.58637C2.96135 2.21141 3.46975 2.00053 4.00002 2H20C20.5303 2.00053 21.0387 2.21141 21.4137 2.58637C21.7886 2.96133 21.9995 3.46973 22 4V14Z" fill="#04293A"/>
</svg>
